<svg xmlns="http://www.w3.org/2000/svg" width="225.776" height="204.981" viewBox="0 0 225.776 204.981"><defs><style>.a{fill:#f38a00;}.b{fill:#ffc37b;}.c{fill:#f2f2f2;}.d{fill:#2f2e41;}</style></defs><g transform="translate(302.138 -880.104)"><path class="a" d="M-286.1,1071.124c4.789,9.575,14.951,13.686,14.951,13.686s2.4-11.414-2.389-20.989-14.951-13.685-14.951-13.685S-290.885,1061.55-286.1,1071.124Z"/><path class="b" d="M-282.806,1067.974c8.646,5.608,11.975,16.747,11.975,16.747s-10.687,2.047-19.332-3.561-11.975-16.747-11.975-16.747S-291.451,1062.366-282.806,1067.974Z"/><rect class="c" width="48.877" height="0.831" transform="translate(-127.894 1059.895)"/><rect class="c" width="0.771" height="7.685" transform="translate(-89.366 1060.518)"/><rect class="c" width="0.771" height="7.685" transform="translate(-112.868 1060.518)"/><rect class="c" width="53.94" height="0.831" transform="translate(-141.379 907.937)"/><rect class="c" width="0.771" height="7.685" transform="translate(-126.739 900.459)"/><rect class="c" width="0.771" height="7.685" transform="translate(-103.236 900.459)"/><path class="d" d="M-162.642,1066.74h-91.229v-.708H-163.3v-34.322h-82.9l-4.027-9.047.592-.306,3.849,8.645h83.147Z"/><ellipse class="a" cx="6.891" cy="7.43" rx="6.891" ry="7.43" transform="translate(-248.621 1069.217)"/><ellipse class="a" cx="6.891" cy="7.43" rx="6.891" ry="7.43" transform="translate(-180.691 1069.217)"/><ellipse class="a" cx="4.266" cy="4.6" rx="4.266" ry="4.6" transform="translate(-97.994 914.24)"/><path class="d" d="M-152.885,1020.035H-255.427l-22.188-78.2h147.58l-.134.46Zm-102.057-.708h101.576l22.436-76.781h-145.8Z"/><path class="c" d="M-160.889,1015.966h-90.067l-19.488-69.351H-140.82l-.118.408Z"/><path class="d" d="M-128.2,934.853l-.635-.182,4.331-17.6h25.193v.708h-24.688Z"/><rect class="d" width="133.035" height="0.708" transform="translate(-270.445 965.545)"/><rect class="d" width="118.019" height="0.708" transform="translate(-263.047 991.616)"/><rect class="d" width="0.656" height="77.489" transform="translate(-204.155 942.192)"/><path class="d" d="M-178.825,1019.657l4.711-77.487.655.046-4.711,77.487Z"/><path class="d" d="M-234.181,942.215l.655-.046,4.684,77.489-.655.046Z"/><rect class="d" width="225.775" height="0.415" transform="translate(-302.138 1084.527)"/><rect class="c" width="53.94" height="0.831" transform="translate(-278.925 921.646)"/><rect class="c" width="0.771" height="7.685" transform="translate(-264.284 914.168)"/><rect class="c" width="0.771" height="7.685" transform="translate(-240.782 914.168)"/><rect class="c" width="48.877" height="0.831" transform="translate(-125.239 986.658)"/><rect class="c" width="0.771" height="7.685" transform="translate(-86.436 987.281)"/><rect class="c" width="0.771" height="7.685" transform="translate(-109.938 987.281)"/><rect class="c" width="53.94" height="0.831" transform="translate(-205.721 880.52)"/><rect class="c" width="0.771" height="7.685" transform="translate(-167.193 881.143)"/><rect class="c" width="0.771" height="7.685" transform="translate(-190.695 881.143)"/><rect class="c" width="53.94" height="0.831" transform="translate(-297.419 880.104)"/><rect class="c" width="0.771" height="7.685" transform="translate(-258.89 880.727)"/><rect class="c" width="0.771" height="7.685" transform="translate(-282.393 880.727)"/><rect class="c" width="53.94" height="0.831" transform="translate(-153.708 1025.165)"/><rect class="c" width="0.771" height="7.685" transform="translate(-139.068 1017.688)"/><rect class="c" width="0.771" height="7.685" transform="translate(-115.565 1017.688)"/></g></svg>