<svg xmlns="http://www.w3.org/2000/svg" xmlns:xlink="http://www.w3.org/1999/xlink" width="226.501" height="225" viewBox="0 0 226.501 225"><defs><style>.a{fill:#eceffe;}.b,.p{fill:none;}.b{stroke:#65617d;}.b,.r{stroke-miterlimit:10;}.c{fill:#65617d;}.d{fill:#f6f7f9;}.e{fill:#f4ac56;font-size:16px;font-family:Roboto-Medium, Roboto;font-weight:500;letter-spacing:0.025em;}.f,.j{fill:#6c63ff;}.f,.o,.r,.s{opacity:0.1;}.f,.o,.r{isolation:isolate;}.g{fill:#9d9cb5;}.h{fill:#ccc53b;}.i{fill:#a0982e;}.k{fill:url(#g);}.l{fill:#fbbebe;}.m{fill:#3e4fb5;}.n{fill:#3f3d56;}.q{fill:#dfe4ea;}.r{stroke:#6c63ff;}.t{filter:url(#e);}.u{filter:url(#c);}.v{filter:url(#a);}</style><filter id="a" x="77.547" y="37.372" width="75.301" height="55.713" filterUnits="userSpaceOnUse"><feOffset dy="3" input="SourceAlpha"/><feGaussianBlur stdDeviation="3" result="b"/><feFlood flood-opacity="0.161"/><feComposite operator="in" in2="b"/><feComposite in="SourceGraphic"/></filter><filter id="c" x="103.348" y="43.021" width="21.531" height="21.531" filterUnits="userSpaceOnUse"><feOffset dy="3" input="SourceAlpha"/><feGaussianBlur stdDeviation="3" result="d"/><feFlood flood-opacity="0.161"/><feComposite operator="in" in2="d"/><feComposite in="SourceGraphic"/></filter><filter id="e" x="46.288" y="71.267" width="136.569" height="85.085" filterUnits="userSpaceOnUse"><feOffset dy="3" input="SourceAlpha"/><feGaussianBlur stdDeviation="3" result="f"/><feFlood flood-opacity="0.161"/><feComposite operator="in" in2="f"/><feComposite in="SourceGraphic"/></filter><linearGradient id="g" x1="1.377" y1="-2.899" x2="1.377" y2="-1.899" gradientUnits="objectBoundingBox"><stop offset="0" stop-color="gray" stop-opacity="0.251"/><stop offset="0.54" stop-color="gray" stop-opacity="0.122"/><stop offset="1" stop-color="gray" stop-opacity="0.102"/></linearGradient></defs><g transform="translate(-1803.361 -632.881)"><rect class="a" width="159.099" height="159.099" rx="4.693" transform="translate(1804.862 745.381) rotate(-45)"/><g class="v" transform="matrix(1, 0, 0, 1, 1803.36, 632.88)"><path class="b" d="M1919.968,700.043,1892.9,664.295a2.735,2.735,0,0,0-4.422.084l-25,35.758" transform="translate(-1776.52 -619.34)"/></g><g class="u" transform="matrix(1, 0, 0, 1, 1803.36, 632.88)"><circle class="c" cx="1.765" cy="1.765" r="1.765" transform="translate(112.35 49.02)"/></g><g class="t" transform="matrix(1, 0, 0, 1, 1803.36, 632.88)"><rect class="d" width="118.569" height="67.085" transform="translate(55.29 77.27)"/></g><text class="e" transform="translate(1872.58 747.989)"><tspan x="0" y="0">FECHADO</tspan></text><ellipse class="f" cx="17.744" cy="2.723" rx="17.744" ry="2.723" transform="translate(1983.06 832.143)"/><path class="c" d="M1951.811,760.913l-.087.693-.119.979-.049.406-.119.981-.053.408-.119.978-1.358,11.132c-.121.994-1.743,1.766-3.7,1.766h-7.054c-1.96,0-3.567-.772-3.7-1.766l-1.361-11.137-.118-.978-.051-.409-.122-.979-.049-.407-.119-.981-.086-.691c-.067-.55.821-1.026,1.919-1.026h14.431C1951,759.883,1951.879,760.359,1951.811,760.913Z" transform="translate(58.127 56.709)"/><path class="g" d="M1951.7,761.074l-.119.977H1933.72l-.119-.977Z" transform="translate(58.155 57.241)"/><path class="g" d="M1951.475,762.032l-.119.98h-17.518l-.121-.98Z" transform="translate(58.207 57.669)"/><path class="g" d="M1951.251,762.991l-.119.98h-17.177l-.119-.98Z" transform="translate(58.26 58.097)"/><path class="h" d="M1941.493,749.136a63.824,63.824,0,0,1,2.793,25.133,60.641,60.641,0,0,1-15.6-46.941A63.838,63.838,0,0,1,1941.493,749.136Z" transform="translate(55.847 42.173)"/><path class="h" d="M1942.266,749.136a63.847,63.847,0,0,0-2.795,25.133,60.633,60.633,0,0,0,15.6-46.941A63.831,63.831,0,0,0,1942.266,749.136Z" transform="translate(60.662 42.173)"/><path class="i" d="M1945.781,750.1a63.809,63.809,0,0,1-4.749,24.837,60.635,60.635,0,0,1-1.046-49.452A63.8,63.8,0,0,1,1945.781,750.1Z" transform="translate(58.881 41.349)"/><circle class="j" cx="0.743" cy="0.743" r="0.743" transform="translate(1999.985 796.387)"/><ellipse class="f" cx="35.872" cy="3.483" rx="35.872" ry="3.483" transform="translate(1803.361 827.779)"/><path class="k" d="M1858.045,810.369a6.519,6.519,0,0,0-.615-1.743l-2.75-4.107h.016a6.936,6.936,0,0,1,0-3.075c.432-1.014-1.545-3.5-1.545-3.5a1.479,1.479,0,0,1,.388-1.4c.627-.77-.388-3.025-.388-3.025s-.48-4.708-.53-5.429-.435-4.707-.435-4.707l-.916-8.453-1.633-22.407-.029-.419c.2-.1.31-.161.31-.161l-.326-12.388.282-.255c2.461-2.228,8.137-7.385,8.08-7.5s-.687-8.61-.761-10.738a12.8,12.8,0,0,0-.977-4.394c-.142-.282-.552-2.141-.722-2.926l-.075-.352s-1.665-3.171-1.52-4.613.434-2.521-3.114-3.025a13.766,13.766,0,0,1-4.753-1.658,13.456,13.456,0,0,0-3.405-1.7s-.994-1.834-1.686-1.212a9.63,9.63,0,0,1-.652-2.042l-.022-.129a6.755,6.755,0,0,0,2.669-3.817c.022-.087.041-.177.061-.263a.767.767,0,0,0,.214.039c.6,0,.974-.673,1.538-.885.229-.09.511-.1.687-.284a.678.678,0,0,0,.152-.508,1.322,1.322,0,0,0,0-.187v-.045c-.155-.833-.8-1.574-.729-2.422.068-.8.769-1.5.712-2.275a1.123,1.123,0,0,0-.016-.184v.027a1.947,1.947,0,0,0-.459-.812,2.6,2.6,0,0,0-.943-.793c-.318-.14-.689-.172-.985-.34-.877-.476-.874-1.718-1.394-2.566a2.269,2.269,0,0,0-2.124-1.052c-.651.064-1.24.409-1.885.522a4.917,4.917,0,0,1-2.61-.459,7.2,7.2,0,0,0-2.576-.687,2.188,2.188,0,0,0-2.135,1.3c-.144.459-.074.952-.184,1.418a3.083,3.083,0,0,1-1.662,1.814c-.459.255-1,.545-1.146,1.027v-.036a1.159,1.159,0,0,0-.023.116.964.964,0,0,0,0,.155,2.918,2.918,0,0,0,.291.958,2.635,2.635,0,0,1-.013,1.847c-.169.435-.458.817-.624,1.251a2.4,2.4,0,0,0-.15.628v-.036a2.483,2.483,0,0,0,0,.292,2.06,2.06,0,0,0,.229.963,1.727,1.727,0,0,0,1.028.864c.459.106.745-.344,1.228-.228a1.742,1.742,0,0,1,.255.079c.016.1.032.207.05.307a6.729,6.729,0,0,0,2.325,3.936,1.362,1.362,0,0,0,.024.166h0a15.547,15.547,0,0,1,.191,2.764s-.723-1.057-1.713.982a20.729,20.729,0,0,1-3.475,1.659c-.891.171-4.056,1.273-4.056,1.273a2.806,2.806,0,0,1-1.641.529c-.988,0-1.808,2.161-1.689,3.336s-.071,2.043-.989,2.09-.418,1.912-.411,1.944l-.084.4c-.179.82-.569,2.58-.706,2.855a12.845,12.845,0,0,0-.979,4.4c-.071,2.126-.687,10.591-.758,10.736-.049.094,3.841,3.648,6.574,6.133l.4.357-1.259,11.752a3.141,3.141,0,0,0,1.293,2.291,4.142,4.142,0,0,1-.015.422,14.691,14.691,0,0,1-.385,3.473c-.385.771-.288,4.9-.288,4.9s-.388,8.406-.869,9.32a6.35,6.35,0,0,0-.436,3.208c.145.376-.483,10.47-.483,10.47l-.482,4.518s.144,4.322-.291,4.418-.675,3.077-.675,3.077-1.543,2.112-.87,2.88-.1,1.107-.169,1.3-1.471.916-.458,3.6a.612.612,0,0,0,.032.078c-.949,1.318-3.955,5.569-3.771,6.216a1.694,1.694,0,0,0,.8.962c.709.424,1.922.621,3.855,0,3.208-1.033,2.978-1.778,2.978-1.778a1.363,1.363,0,0,1,1.353-1.3,3.8,3.8,0,0,0,2.317-1.321l-.156-.579-.213-.8c.025-.229.188-.631.916-.852,1.112-.337.822-2.45.822-2.45s-.1-2.209.385-2.5.291-3.939.291-3.939a26.932,26.932,0,0,1,1.3-4.42c.769-1.779,1.691-12.343,1.691-12.343a48.922,48.922,0,0,1,1.2-6.679,37.775,37.775,0,0,0,1.112-5.667s3.573-6.919,3.618-8.456c0,0,.458-1.441.917.145s1.746,5.381,1.746,5.381l1.254,4.659,1.5,6.965.968,5.861a9.153,9.153,0,0,0,.229,2.98c.376.77.917,2.543.628,2.88s.579,1.922.822,2.258,0,7.445,0,7.445,1.108,6.052,2.7,7.1a1.945,1.945,0,0,0,.353.184c-.022.655-.045,1.533-.016,1.992a.785.785,0,0,0,.051.3,8.372,8.372,0,0,0,2.125,1.49c.339,0,1.542.84,1.593,1.248s3.526,2.136,4.02,2.187,2.88.479,3.208-.192A1.112,1.112,0,0,0,1858.045,810.369Zm-8.542-86.561.247.213s.255,1.983.435,2.576a4.979,4.979,0,0,1-.036,1.749,4,4,0,0,0,.254,1.26c.216.434-.435,1.376-.435,1.376h-.58l-.181-7.421Zm-17.24-22.156v-.043a.121.121,0,0,0-.007.043Zm-8.9,28.566a.835.835,0,0,1-.038-.612,1.74,1.74,0,0,0,.121-.338,5.287,5.287,0,0,0,.133-.917v-.012a4.883,4.883,0,0,1-.035-1.737c.172-.563.434-2.575.434-2.575l.165-.14.382-.333a2.708,2.708,0,0,1,.028-.327,25.482,25.482,0,0,1,.042,3.762,5.589,5.589,0,0,0-.725,2.137,8.745,8.745,0,0,1-.149,1.782A3.58,3.58,0,0,1,1823.361,730.217Z" transform="translate(4.572 21.943)"/><path class="l" d="M1836.343,699.128v2.851l-5.848,2.941s-5.808-3.514-4.375-4.911c.917-.885.74-3.314.493-4.985h0c-.145-.972-.311-1.685-.311-1.685s10.431-2.978,8.854-.718a3.561,3.561,0,0,0-.392,2.7A12.275,12.275,0,0,0,1836.343,699.128Z" transform="translate(10.06 26.297)"/><path class="m" d="M1825.085,721.689l-.754,9.285s-1.13-1.024-2.592-2.358c-2.711-2.472-6.562-6.009-6.515-6.1.071-.145.687-8.568.754-10.685a12.813,12.813,0,0,1,.968-4.373,27.016,27.016,0,0,0,.687-2.844c.055-.255.09-.42.09-.42l1.264-.509s5.271,5.88,5.271,5.989-.359,4.625-.359,4.625l-.374.325-.162.14s-.252,1.973-.431,2.563a4.568,4.568,0,0,0,.035,1.729h0a5.323,5.323,0,0,1-.132.917,1.784,1.784,0,0,1-.121.337.843.843,0,0,0,.037.609,3.659,3.659,0,0,0,.394.754Z" transform="translate(5.297 31.615)"/><path class="m" d="M1847.166,722.512c.055.113-5.566,5.244-8,7.46l-1.1,1-.748-9.285h1.937s.646-.933.431-1.364a3.956,3.956,0,0,1-.25-1.253,5.025,5.025,0,0,0,.035-1.74c-.179-.593-.431-2.565-.431-2.565l-.246-.21-.291-.255s-.36-4.518-.36-4.625,5.271-5.989,5.271-5.989l1.255.5s.027.135.073.35c.169.782.576,2.631.715,2.913a12.773,12.773,0,0,1,.968,4.373C1846.479,713.944,1847.094,722.367,1847.166,722.512Z" transform="translate(15.16 31.617)"/><path class="n" d="M1847.51,773.6c-.337.668-2.7.229-3.189.192s-3.935-1.772-3.984-2.177-1.241-1.242-1.577-1.242a8.367,8.367,0,0,1-2.1-1.483.749.749,0,0,1-.048-.3c-.051-.786.048-2.809.048-2.809l6.933.382,3.367,5.067a6.484,6.484,0,0,1,.611,1.736A1.15,1.15,0,0,1,1847.51,773.6Z" transform="translate(14.839 59.345)"/><path class="o" d="M1847.51,773.6c-.337.668-2.7.229-3.189.192s-3.935-1.772-3.984-2.177-1.241-1.242-1.577-1.242a8.367,8.367,0,0,1-2.1-1.483.749.749,0,0,1-.048-.3c-.051-.786.048-2.809.048-2.809l6.933.382,3.367,5.067a6.484,6.484,0,0,1,.611,1.736A1.15,1.15,0,0,1,1847.51,773.6Z" transform="translate(14.839 59.345)"/><path class="o" d="M1847.505,772.737c-.337.668-2.7.229-3.19.192s-3.935-1.772-3.984-2.177-1.241-1.242-1.577-1.242a8.367,8.367,0,0,1-2.1-1.483.749.749,0,0,1-.048-.3l2.245,1.42a9.488,9.488,0,0,1,1.818,1.461c.382.542,3.4,1.672,3.648,1.7a17.228,17.228,0,0,1,3.247-.2A1.148,1.148,0,0,1,1847.505,772.737Z" transform="translate(14.843 60.213)"/><path class="n" d="M1824.94,769.345a3.751,3.751,0,0,1-2.292,1.312,1.35,1.35,0,0,0-1.338,1.29s.229.744-2.941,1.772c-1.914.616-3.117.421-3.817,0a1.7,1.7,0,0,1-.8-.958c-.216-.764,4.014-6.573,4.014-6.573l3.85-.229,2.75,1.241.422,1.575Z" transform="translate(4.638 59.423)"/><path class="o" d="M1824.94,769.345a3.751,3.751,0,0,1-2.292,1.312,1.35,1.35,0,0,0-1.338,1.29s.229.744-2.941,1.772c-1.914.616-3.117.421-3.817,0a1.7,1.7,0,0,1-.8-.958c-.216-.764,4.014-6.573,4.014-6.573l3.85-.229,2.75,1.241.422,1.575Z" transform="translate(4.638 59.423)"/><path class="p" d="M1824.692,768.479a3.749,3.749,0,0,1-2.291,1.312,1.35,1.35,0,0,0-1.338,1.29s.229.744-2.941,1.772c-1.914.616-3.117.421-3.818,0a23.447,23.447,0,0,0,6.187-1.721c.479-.479,1.078-1.794,1.483-1.817a16,16,0,0,0,2.574-1.415Z" transform="translate(4.886 60.289)"/><path class="o" d="M1824.692,768.479a3.749,3.749,0,0,1-2.291,1.312,1.35,1.35,0,0,0-1.338,1.29s.229.744-2.941,1.772c-1.914.616-3.117.421-3.818,0a23.447,23.447,0,0,0,6.187-1.721c.479-.479,1.078-1.794,1.483-1.817a16,16,0,0,0,2.574-1.415Z" transform="translate(4.886 60.289)"/><path class="m" d="M1853.432,781.455a6.89,6.89,0,0,0,0,3.059s-6.416.334-7.983-.717-2.678-7.078-2.678-7.078.23-7.073,0-7.409-1.1-1.911-.813-2.245-.229-2.1-.622-2.87a8.573,8.573,0,0,1-.229-2.963l-.958-5.835-1.481-6.93-1.257-4.638s-1.29-3.777-1.729-5.354-.9-.145-.9-.145c-.045,1.531-3.583,8.416-3.583,8.416a38,38,0,0,1-1.1,5.64,48.934,48.934,0,0,0-1.2,6.645s-.917,10.516-1.672,12.285a27.109,27.109,0,0,0-1.277,4.4s.193,3.635-.286,3.922-.4,2.487-.4,2.487.286,2.1-.815,2.439-.915,1.052-.915,1.052-6.119,1-7.123-1.675.382-3.392.458-3.584.838-.525.169-1.292.859-2.867.859-2.867.24-2.964.67-3.059.288-4.4.288-4.4l.477-4.493s.624-10.04.479-10.424a6.373,6.373,0,0,1,.431-3.208c.479-.916.859-9.276.859-9.276s-.1-4.108.286-4.875a14.237,14.237,0,0,0,.381-3.457c.04-1.039.05-1.9.05-1.9l5.354-2.008,6.874-2.2,5.785,2.773,8.464,1.624.106,1.46,1.615,22.3.916,8.413s.383,3.966.431,4.684.525,5.4.525,5.4,1,2.245.383,3.01a1.453,1.453,0,0,0-.383,1.376S1853.863,780.451,1853.432,781.455Z" transform="translate(5.665 41.982)"/><path class="o" d="M1835.032,692.622a3.562,3.562,0,0,0-.392,2.7,6.724,6.724,0,0,1-8.151-.305h0c-.144-.972-.311-1.684-.311-1.684S1836.609,690.362,1835.032,692.622Z" transform="translate(10.188 26.297)"/><path class="l" d="M1838.131,692.412a6.715,6.715,0,1,1-6.715-6.715h0a6.682,6.682,0,0,1,6.715,6.65Z" transform="translate(9.529 23.583)"/><path class="o" d="M1840.05,698.09l-2.2,39.177-11.951-2.509-2.367-15.7,2.344-21.084,1.765.227,3.112.4,3.082.19,3.341-.371Z" transform="translate(9.007 29.063)"/><path class="d" d="M1840.05,698.287l-2.2,39.177-11.951-2.509-2.367-15.705,2.344-21.081,1.765.225,3.112.4,3.082.19,3.341-.371Z" transform="translate(9.007 29.152)"/><path class="n" d="M1828.16,698.978l4.3.145-1.211,1.692s.086,3.423.661,4.4.405,16.133.405,16.133l-1.146,2.176-1.96-2.439.026-20.007Z" transform="translate(11.073 29.514)"/><path class="o" d="M1828.16,698.978l4.3.145-1.211,1.692s.086,3.423.661,4.4.405,16.133.405,16.133l-1.146,2.176-1.96-2.439.026-20.007Z" transform="translate(11.073 29.514)"/><path class="o" d="M1834.059,695.9l-4.015,4.446,2.294,2.39,3.8-3.706Z" transform="translate(11.914 28.141)"/><path class="q" d="M1834.059,695.706l-4.015,4.446,2.294,2.39,3.8-3.706Z" transform="translate(11.914 28.053)"/><path class="o" d="M1830.244,700.083l-4.065-4.063-.383,2.127,1.866,4.661Z" transform="translate(10.018 28.193)"/><path class="q" d="M1830.342,699.885l-4.063-4.063-.383,2.127,1.865,4.661Z" transform="translate(10.062 28.105)"/><path class="o" d="M1846.656,732.763a19.8,19.8,0,0,1-6.188,1.789c-3.943.5-6.524-4.516-6.524-4.516l-1.506,1.958c-.479,2.081-7.769,2.607-10.731,1.818a4.756,4.756,0,0,1-1.7-.806c.042-1.037.051-1.9.051-1.9l5.354-2.008,6.875-2.2,5.785,2.773,8.462,1.624Z" transform="translate(7.432 41.984)"/><path class="o" d="M1840.051,698.29l-2.2,39.175-11.953-2.51-2.372-15.7,2.342-21.085,1.765.23a21.435,21.435,0,0,1-.259,2.291c-.286,1.341,1.483,10.853,1.483,10.853s3.362,10.668,4.875,9.13,3.666-9.657,3.666-9.657c1.461-3.012.026-11.459-.083-11.629a3.568,3.568,0,0,1-.138-.768Z" transform="translate(9.005 29.152)"/><path class="o" d="M1839.061,720.583l.1,3.839-1.105,1-.745-9.292h1.651Z" transform="translate(15.16 37.173)"/><path class="o" d="M1820.631,714.314h0a5.281,5.281,0,0,1-.13.916c0-.084,0-.132-.019-.139C1820.414,715.072,1820.5,714.722,1820.631,714.314Z" transform="translate(7.634 36.362)"/><path class="o" d="M1823.074,716.364l-.754,9.285s-1.13-1.024-2.592-2.358l.175-1.645s.617-4.043.841-6.036a3.732,3.732,0,0,0,.393.753Z" transform="translate(7.308 36.94)"/><path class="m" d="M1830.834,696.086s-.714-1.052-1.7.979a20.418,20.418,0,0,1-3.438,1.649c-.879.168-4.01,1.269-4.01,1.269a2.766,2.766,0,0,1-1.625.524c-.981,0-1.795,2.152-1.676,3.324s-.071,2.032-.978,2.08-.408,1.934-.408,1.934l6.048,6.933s.382,6.382.193,6.574a5.637,5.637,0,0,0-.718,2.126c.168.064-.917,7.123-.917,7.123l-1.457,13.7s0,2.293,2.965,3.083,10.26.268,10.729-1.812l1.506-1.962s2.58,5.021,6.525,4.519a18.968,18.968,0,0,0,6.455-1.937l-.431-16.415-.286-11.831,6.157-10.118s-1.651-3.156-1.506-4.584.428-2.508-3.086-3.01a13.487,13.487,0,0,1-4.708-1.65,13.471,13.471,0,0,0-3.369-1.7s-.985-1.834-1.67-1.206a22.669,22.669,0,0,1,.631,2.98,9.773,9.773,0,0,0,.216,2.319c.107.181,1.542,8.617.082,11.629,0,0-2.144,8.119-3.667,9.657s-4.875-9.13-4.875-9.13-1.769-9.515-1.483-10.853S1830.834,696.086,1830.834,696.086Z" transform="translate(6.031 27.982)"/><circle class="n" cx="1.052" cy="1.052" r="1.052" transform="translate(1840.929 753.304)"/><circle class="n" cx="1.052" cy="1.052" r="1.052" transform="translate(1840.929 758.263)"/><circle class="o" cx="1.052" cy="1.052" r="1.052" transform="translate(1840.929 753.304)"/><circle class="o" cx="1.052" cy="1.052" r="1.052" transform="translate(1840.929 758.263)"/><path class="r" d="M1836.594,763.623s4.318.334,4.746.668S1836.594,763.623,1836.594,763.623Z" transform="translate(14.839 58.379)"/><path class="r" d="M1818.824,761.276s.916,1.147.527,1.673S1818.824,761.276,1818.824,761.276Z" transform="translate(6.904 57.331)"/><path class="r" d="M1819.584,764.324s1.672-1.1,2.342-.369S1819.584,764.324,1819.584,764.324Z" transform="translate(7.244 58.415)"/><path class="o" d="M1838.129,692.411a6.666,6.666,0,0,1-.215,1.7.764.764,0,0,1-.444-.748c.029-.272.211-.522.172-.793-.057-.417-.562-.586-.827-.917a2.127,2.127,0,0,1-.23-1.494c.027-.515-.1-1.146-.586-1.322-.145-.052-.3-.056-.442-.116-.38-.16-.5-.634-.753-.959a1.981,1.981,0,0,0-2.291-.33,10.565,10.565,0,0,1-1.032.431,1.345,1.345,0,0,1-1.079-.08c-.152-.1-.273-.23-.428-.325a1.48,1.48,0,0,0-1.646.4,5.691,5.691,0,0,1-1.374,1.185c-.255.114-.569.184-.689.431a.891.891,0,0,0-.072.428,12.833,12.833,0,0,1-.081,2.67c-.118.561-.513,1.2-1.083,1.13a1.01,1.01,0,0,1-.208-.054,6.714,6.714,0,1,1,13.314-1.241Z" transform="translate(9.53 23.584)"/><path class="n" d="M1825.346,694.715c.172.039.334.129.51.152.571.068.965-.568,1.085-1.13a12.444,12.444,0,0,0,.082-2.67.875.875,0,0,1,.071-.428c.13-.247.444-.317.687-.431a5.9,5.9,0,0,0,1.376-1.185,1.462,1.462,0,0,1,1.643-.4c.153.091.276.229.428.325a1.376,1.376,0,0,0,1.082.08c.355-.106.687-.291,1.029-.431a1.991,1.991,0,0,1,2.291.328c.255.327.372.8.753.958.14.059.3.067.442.12.483.181.608.806.586,1.322a2.218,2.218,0,0,0,.23,1.494c.265.326.769.495.827.916.036.271-.143.524-.172.793a.762.762,0,0,0,.707.811h.01c.6,0,.965-.667,1.522-.879.229-.09.506-.1.687-.285a.757.757,0,0,0,.142-.621c-.113-.878-.816-1.64-.741-2.521.072-.843.854-1.578.688-2.409a1.952,1.952,0,0,0-.458-.817,2.648,2.648,0,0,0-.936-.791,9.459,9.459,0,0,1-.978-.337c-.867-.474-.864-1.711-1.376-2.555a2.24,2.24,0,0,0-2.089-1.04c-.645.064-1.229.4-1.866.519a4.825,4.825,0,0,1-2.585-.459,7.087,7.087,0,0,0-2.55-.687,2.174,2.174,0,0,0-2.118,1.3c-.143.459-.071.949-.181,1.409a3.076,3.076,0,0,1-1.646,1.805c-.5.281-1.1.6-1.164,1.172a2.427,2.427,0,0,0,.286,1.039,2.644,2.644,0,0,1-.013,1.833c-.167.434-.447.815-.616,1.244a2.229,2.229,0,0,0,.059,1.834,1.71,1.71,0,0,0,1.047.859C1824.58,695.056,1824.864,694.609,1825.346,694.715Z" transform="translate(8.704 22.137)"/><g class="s" transform="translate(1831.556 710.027)"><path d="M1826.941,690.242c-.12.561-.516,1.2-1.086,1.13-.176-.023-.337-.113-.512-.152-.479-.106-.762.344-1.214.229a1.71,1.71,0,0,1-1.05-.859,1.963,1.963,0,0,1-.213-.749,2.094,2.094,0,0,0,.213,1.18,1.715,1.715,0,0,0,1.05.859c.459.106.735-.343,1.214-.229a5.147,5.147,0,0,0,.512.149c.57.071.966-.567,1.086-1.128a6.637,6.637,0,0,0,.11-1.506A5.7,5.7,0,0,1,1826.941,690.242Z" transform="translate(-1822.853 -684.895)"/><path d="M1823.645,688.089a2.648,2.648,0,0,0-.15-1.108,5.86,5.86,0,0,1-.265-.723.89.89,0,0,0-.022.117,2.441,2.441,0,0,0,.286,1.037A2.659,2.659,0,0,1,1823.645,688.089Z" transform="translate(-1822.697 -686.193)"/><path d="M1835.828,686.689c-.108.651-.635,1.263-.687,1.947a1.594,1.594,0,0,0,0,.353C1835.254,688.189,1835.963,687.482,1835.828,686.689Z" transform="translate(-1817.371 -686.001)"/><path d="M1836.584,690.031a.541.541,0,0,1-.13.258c-.169.181-.458.2-.689.284-.557.214-.916.887-1.522.881a.769.769,0,0,1-.687-.532,1.311,1.311,0,0,0-.032.152.761.761,0,0,0,.71.809h.007c.6,0,.965-.667,1.521-.878.229-.09.509-.1.687-.283a.761.761,0,0,0,.142-.622C1836.591,690.07,1836.587,690.053,1836.584,690.031Z" transform="translate(-1818.088 -684.509)"/><path d="M1833.987,690.415c-.056-.417-.561-.587-.827-.917a1.266,1.266,0,0,1-.252-.751,1.7,1.7,0,0,0,.252,1.182c.265.321.665.458.794.788A.727.727,0,0,0,1833.987,690.415Z" transform="translate(-1818.366 -685.082)"/><path d="M1836.128,689.147c.017-.515-.106-1.146-.589-1.322-.143-.052-.3-.059-.441-.117-.38-.161-.5-.632-.75-.958a1.99,1.99,0,0,0-2.293-.33,10.977,10.977,0,0,1-1.028.431,1.35,1.35,0,0,1-1.079-.081c-.152-.1-.275-.228-.428-.325a1.479,1.479,0,0,0-1.646.4,5.709,5.709,0,0,1-1.374,1.185c-.258.114-.569.182-.7.431a.888.888,0,0,0-.071.428v.268a.64.64,0,0,1,.067-.266c.132-.247.444-.315.7-.43a5.946,5.946,0,0,0,1.375-1.186,1.469,1.469,0,0,1,1.645-.4c.155.092.278.23.43.324a1.343,1.343,0,0,0,1.079.08,10.682,10.682,0,0,0,1.029-.428,1.987,1.987,0,0,1,2.293.327c.251.325.37.8.751.959.14.059.3.066.44.119a1.1,1.1,0,0,1,.583,1.023Z" transform="translate(-1821.571 -686.213)"/></g><g class="s" transform="translate(1834.825 713.56)"><path d="M1825.114,690.456a1.759,1.759,0,0,1,1.325-1.643,5.49,5.49,0,0,1,3.088.141c2.175.719-.275,3.308-.275,3.308s-1.629,1.6-3.148.484a2.387,2.387,0,0,1-.888-1.376A3.538,3.538,0,0,1,1825.114,690.456Z" transform="translate(-1825.113 -688.655)"/><path d="M1835.019,690.456a1.756,1.756,0,0,0-1.327-1.643,5.5,5.5,0,0,0-3.087.14c-2.176.719.275,3.308.275,3.308s1.627,1.6,3.149.485a2.39,2.39,0,0,0,.887-1.376A3.545,3.545,0,0,0,1835.019,690.456Z" transform="translate(-1823.062 -688.655)"/><path d="M1827.881,688.721v.108h3.972V688.7Z" transform="translate(-1823.877 -688.635)"/><path d="M1828.791,689.7h.126v-.365a1.045,1.045,0,0,1,1.073,0v.326h.229v-.214h-.112s.046-.441-.7-.37c0,0-.6-.058-.587.323h-.137Z" transform="translate(-1823.519 -688.469)"/></g><path class="m" d="M1825.114,690.352a1.759,1.759,0,0,1,1.325-1.643,5.529,5.529,0,0,1,3.088.14c2.175.722-.275,3.308-.275,3.308s-1.629,1.6-3.148.485a2.371,2.371,0,0,1-.888-1.376A3.532,3.532,0,0,1,1825.114,690.352Z" transform="translate(9.712 24.859)"/><path class="m" d="M1835.019,690.352a1.756,1.756,0,0,0-1.327-1.643,5.524,5.524,0,0,0-3.087.14c-2.176.722.275,3.308.275,3.308s1.627,1.6,3.149.485a2.366,2.366,0,0,0,.887-1.376A3.419,3.419,0,0,0,1835.019,690.352Z" transform="translate(11.763 24.859)"/><path class="m" d="M1827.881,688.622v.11h3.972v-.13Z" transform="translate(10.949 24.88)"/><path class="m" d="M1828.791,689.6h.126v-.365a1.053,1.053,0,0,1,1.073,0v.328h.229v-.216h-.112s.046-.441-.7-.372c0,0-.6-.055-.587.323h-.137Z" transform="translate(11.306 25.046)"/></g></svg>